<svg width="230px" height="50px" xmlns="http://www.w3.org/2000/svg" viewBox="130 40 240 70" style="background: none;" preserveAspectRatio="xMidYMid">
	<defs>
		<linearGradient id="editing-outline-gradient" x1="-0.41354545764260087" x2="1.4135454576426008" y1="0.09326335692419985" y2="0.9067366430758002">
			<stop offset="0" stop-color="#008080"></stop>
			<stop offset="1" stop-color="#0f878e"></stop>
		</linearGradient>
		<filter id="editing-outline" x="-100%" y="-100%" width="300%" height="300%">
			<feMorphology in="SourceGraphic" operator="dilate" radius="1" result="outline"></feMorphology>
			<feComposite operator="out" in="outline" in2="SourceAlpha"></feComposite>
		</filter>
	</defs>
	<g filter="url(#editing-outline)">
		<g transform="translate(98.88998532295227, 97.78499984741211)">
			<path d="M20.94-17.84L21.47-17.84L21.47-17.84Q26.22-17.84 26.22-18.75L26.22-18.75L26.22-18.94L26.22-18.94Q26.22-19.25 25.83-20.77L25.83-20.77L25.83-20.77Q25.44-22.28 25.38-22.55L25.38-22.55L25.38-22.55Q25.31-22.81 25.22-23.08L25.22-23.08L25.22-23.08Q25.13-23.34 24.30-26.89L24.30-26.89L24.30-26.89Q23.47-30.44 22.16-33.50L22.16-33.50L22.16-33.50Q20.84-36.56 20.66-36.56L20.66-36.56L20.66-36.56Q20.47-36.56 19.56-34.31L19.56-34.31L19.56-34.31Q14.31-21.19 14.31-18.78L14.31-18.78L14.31-18.59L14.31-18.59Q14.31-17.84 17.53-17.84L17.53-17.84L19.63-17.84L19.91-17.88L20.94-17.84ZM38.78-5.38L38.78-5.38L38.78-4.75L38.78-4.75Q38.78-2.97 37.28-1.53L37.28-1.53L37.28-1.53Q36.47-0.75 34.30-0.75L34.30-0.75L34.30-0.75Q32.13-0.75 31.22-1.91L31.22-1.91L31.22-1.91Q31.13-2.03 30.02-6.16L30.02-6.16L30.02-6.16Q28.91-10.28 27.52-11.86L27.52-11.86L27.52-11.86Q26.13-13.44 22.09-13.44L22.09-13.44L22.09-13.44Q14.41-13.44 12.95-12.11L12.95-12.11L12.95-12.11Q11.50-10.78 10.16-6.50L10.16-6.50L10.16-6.50Q9.66-4.94 9.47-3.50L9.47-3.50L9.47-3.50Q9.28-2.06 9-1.66L9-1.66L9-1.66Q8.44-0.81 6.80-0.81L6.80-0.81L6.80-0.81Q5.16-0.81 4.19-2.17L4.19-2.17L4.19-2.17Q3.22-3.53 3.22-5.20L3.22-5.20L3.22-5.20Q3.22-6.88 4.36-8.55L4.36-8.55L4.36-8.55Q5.50-10.22 6.02-11.55L6.02-11.55L6.02-11.55Q6.53-12.88 10.58-24.75L10.58-24.75L10.58-24.75Q14.63-36.63 16.02-39.56L16.02-39.56L16.02-39.56Q17.41-42.50 18.45-43.30L18.45-43.30L18.45-43.30Q19.50-44.09 21.03-44.09L21.03-44.09L21.03-44.09Q22.56-44.09 23.81-43L23.81-43L23.81-43Q25.06-41.91 26.50-38.81L26.50-38.81L26.50-38.81Q26.53-38.72 36.25-11.31L36.25-11.31L36.25-11.31Q36.78-9.81 37.78-8.19L37.78-8.19L37.78-8.19Q38.78-6.56 38.78-5.38ZM64.88-20.97L64.88-20.97L64.88-20.97Q64.88-23.72 63.52-25.44L63.52-25.44L63.52-25.44Q62.16-27.16 59.03-27.16L59.03-27.16L58.75-27.16L58.44-27.13L58.44-27.13Q55.19-27.13 53.08-24.05L53.08-24.05L53.08-24.05Q50.97-20.97 50.97-15.56L50.97-15.56L50.97-14.13L50.97-14.13Q50.97-9.28 52.89-6.66L52.89-6.66L52.89-6.66Q54.81-4.03 57.63-4.03L57.63-4.03L57.91-4.03L57.91-4.03Q61.19-4.03 63-6.31L63-6.31L63-6.31Q64.81-8.59 64.81-12.84L64.81-12.84L64.81-12.84Q64.88-13.53 64.88-13.84L64.88-13.84L64.97-15.81L64.97-19.38L64.91-20.34L64.91-20.34Q64.88-20.66 64.88-20.97ZM59.47-30.94L59.47-30.94L59.47-30.94Q62.91-30.94 63.59-31.78L63.59-31.78L63.59-31.78Q64.66-33.09 64.66-37.38L64.66-37.38L64.66-37.38Q64.66-38.66 64.38-40.02L64.38-40.02L64.38-40.02Q64.09-41.38 64.09-41.81L64.09-41.81L64.09-41.81Q64.09-43.22 65.16-44.19L65.16-44.19L65.16-44.19Q66.22-45.16 68.25-45.16L68.25-45.16L68.84-45.16L68.84-45.16Q71.31-45.16 71.69-42.94L71.69-42.94L71.69-42.94Q71.97-41.34 71.97-25.41L71.97-25.41L71.91-21.66L71.91-16.44L71.97-13.56L71.97-13.56Q71.97-12.84 71.97-12.13L71.97-12.13L72-11.44L72-11.44Q72.03-10.75 72.03-8.95L72.03-8.95L72.03-8.95Q72.03-7.16 72.55-5.45L72.55-5.45L72.55-5.45Q73.06-3.75 73.06-3.06L73.06-3.06L73.06-3.06Q73.06-2.38 72.28-1.72L72.28-1.72L72.28-1.72Q71.50-1.06 69.98-1.06L69.98-1.06L69.98-1.06Q68.47-1.06 66.89-1.48L66.89-1.48L66.89-1.48Q65.31-1.91 64.72-1.91L64.72-1.91L64.72-1.91Q64.13-1.91 61.48-1L61.48-1L61.48-1Q58.84-0.09 56.88-0.09L56.88-0.09L56.19-0.09L56.19-0.09Q50.88-0.09 47.92-3.70L47.92-3.70L47.92-3.70Q44.97-7.31 44.97-13.16L44.97-13.16L44.97-14.75L44.97-14.75Q44.97-17.81 45.95-20.89L45.95-20.89L45.95-20.89Q46.94-23.97 48.81-26.25L48.81-26.25L48.81-26.25Q52.72-30.94 59.47-30.94ZM100.41-20.97L100.41-20.97L100.41-20.97Q100.41-23.72 99.05-25.44L99.05-25.44L99.05-25.44Q97.69-27.16 94.56-27.16L94.56-27.16L94.28-27.16L93.97-27.13L93.97-27.13Q90.72-27.13 88.61-24.05L88.61-24.05L88.61-24.05Q86.50-20.97 86.50-15.56L86.50-15.56L86.50-14.13L86.50-14.13Q86.50-9.28 88.42-6.66L88.42-6.66L88.42-6.66Q90.34-4.03 93.16-4.03L93.16-4.03L93.44-4.03L93.44-4.03Q96.72-4.03 98.53-6.31L98.53-6.31L98.53-6.31Q100.34-8.59 100.34-12.84L100.34-12.84L100.34-12.84Q100.41-13.53 100.41-13.84L100.41-13.84L100.50-15.81L100.50-19.38L100.44-20.34L100.44-20.34Q100.41-20.66 100.41-20.97ZM95-30.94L95-30.94L95-30.94Q98.44-30.94 99.13-31.78L99.13-31.78L99.13-31.78Q100.19-33.09 100.19-37.38L100.19-37.38L100.19-37.38Q100.19-38.66 99.91-40.02L99.91-40.02L99.91-40.02Q99.63-41.38 99.63-41.81L99.63-41.81L99.63-41.81Q99.63-43.22 100.69-44.19L100.69-44.19L100.69-44.19Q101.75-45.16 103.78-45.16L103.78-45.16L104.38-45.16L104.38-45.16Q106.84-45.16 107.22-42.94L107.22-42.94L107.22-42.94Q107.50-41.34 107.50-25.41L107.50-25.41L107.44-21.66L107.44-16.44L107.50-13.56L107.50-13.56Q107.50-12.84 107.50-12.13L107.50-12.13L107.53-11.44L107.53-11.44Q107.56-10.75 107.56-8.95L107.56-8.95L107.56-8.95Q107.56-7.16 108.08-5.45L108.08-5.45L108.08-5.45Q108.59-3.75 108.59-3.06L108.59-3.06L108.59-3.06Q108.59-2.38 107.81-1.72L107.81-1.72L107.81-1.72Q107.03-1.06 105.52-1.06L105.52-1.06L105.52-1.06Q104-1.06 102.42-1.48L102.42-1.48L102.42-1.48Q100.84-1.91 100.25-1.91L100.25-1.91L100.25-1.91Q99.66-1.91 97.02-1L97.02-1L97.02-1Q94.38-0.09 92.41-0.09L92.41-0.09L91.72-0.09L91.72-0.09Q86.41-0.09 83.45-3.70L83.45-3.70L83.45-3.70Q80.50-7.31 80.50-13.16L80.50-13.16L80.50-14.75L80.50-14.75Q80.50-17.81 81.48-20.89L81.48-20.89L81.48-20.89Q82.47-23.97 84.34-26.25L84.34-26.25L84.34-26.25Q88.25-30.94 95-30.94ZM166.13-40.28L166.13-40.28L166.13-40.28Q166.13-37.31 164.31-37.31L164.31-37.31L164.31-37.31Q163.63-37.31 161.72-37.84L161.72-37.84L161.72-37.84Q159.81-38.38 157.94-38.38L157.94-38.38L157.94-38.38Q153.78-38.38 153.03-35.25L153.03-35.25L153.03-35.25Q152.41-32.63 152.41-19.75L152.41-19.75L152.31-13.63L152.31-10.50L152.31-10.50Q152.31-8.66 152.55-7.72L152.55-7.72L152.55-7.72Q152.78-6.78 153.27-5.44L153.27-5.44L153.27-5.44Q153.75-4.09 153.75-3.31L153.75-3.31L153.75-3.31Q153.75-1.75 152.42-0.91L152.42-0.91L152.42-0.91Q151.09-0.06 148.72-0.06L148.72-0.06L147.94-0.06L147.94-0.06Q146.22-0.06 144.88-0.92L144.88-0.92L144.88-0.92Q143.53-1.78 143.53-2.97L143.53-2.97L143.53-2.97Q143.53-4.16 143.91-5.19L143.91-5.19L144.16-5.81L144.44-6.44L144.44-6.44Q144.72-7.09 145.11-8.47L145.11-8.47L145.11-8.47Q145.50-9.84 145.50-13.53L145.50-13.53L145.53-14.41L145.53-14.41Q145.56-15.28 145.56-16.16L145.56-16.16L145.63-17.94L145.72-25L145.72-25Q145.72-33.88 145.19-35.78L145.19-35.78L145.19-35.78Q144.50-38.25 141.28-38.25L141.28-38.25L141.28-38.25Q139.41-38.25 136.92-37.42L136.92-37.42L136.92-37.42Q134.44-36.59 133.84-36.59L133.84-36.59L133.84-36.59Q132.31-36.59 132.31-39.78L132.31-39.78L132.31-39.78Q132.31-42.97 135.03-43.41L135.03-43.41L135.03-43.41Q138.84-44 153-44L153-44L161.69-44L161.69-44Q164.09-44 165.11-43.09L165.11-43.09L165.11-43.09Q166.13-42.19 166.13-40.28ZM181.41-18.41L181.41-18.41L181.41-18.41Q183.53-18.41 184.41-19.06L184.41-19.06L184.41-19.06Q185.28-19.72 185.28-20.56L185.28-20.56L185.28-21.88L185.28-21.88Q185.28-24.13 183.63-25.59L183.63-25.59L183.63-25.59Q181.97-27.06 180-27.06L180-27.06L179.19-27.06L179.19-27.06Q176.34-27.06 174.22-24.67L174.22-24.67L174.22-24.67Q172.09-22.28 172.09-19.44L172.09-19.44L172.09-18.91L172.09-18.91Q172.09-17.81 174.09-17.81L174.09-17.81L174.81-17.81L175-17.84L177.34-18L178.91-18.13L179.97-18.25L179.97-18.25Q180.25-18.28 180.73-18.34L180.73-18.34L180.73-18.34Q181.22-18.41 181.41-18.41ZM180.13 0.41L180.13 0.41L178.75 0.41L178.75 0.41Q172.50 0.41 168.72-3.81L168.72-3.81L168.72-3.81Q167.03-5.69 166.09-8.58L166.09-8.58L166.09-8.58Q165.16-11.47 165.16-14.31L165.16-14.31L165.16-15.72L165.16-15.72Q165.16-18.56 166.34-21.69L166.34-21.69L166.34-21.69Q168.63-27.78 174.09-29.97L174.09-29.97L174.09-29.97Q176.91-31.13 180.06-31.13L180.06-31.13L180.75-31.13L180.75-31.13Q185.13-31.13 187.97-28.47L187.97-28.47L187.97-28.47Q189.59-26.94 190.42-24.80L190.42-24.80L190.42-24.80Q191.25-22.66 191.25-20.94L191.25-20.94L191.25-20.94Q191.25-17.16 188.88-16L188.88-16L188.88-16Q187.25-15.22 181.45-14.53L181.45-14.53L181.45-14.53Q175.66-13.84 175.09-13.69L175.09-13.69L175.09-13.69Q172.38-13 172.38-11.25L172.38-11.25L172.38-11.25Q172.38-8.22 175.16-6.19L175.16-6.19L175.16-6.19Q177.19-4.69 180.97-4.69L180.97-4.69L180.97-4.69Q182.41-4.69 185.63-5.59L185.63-5.59L185.63-5.59Q188.84-6.50 189.16-6.50L189.16-6.50L189.16-6.50Q190.78-6.50 190.78-5.03L190.78-5.03L190.78-5.03Q190.78-3.19 187.30-1.39L187.30-1.39L187.30-1.39Q183.81 0.41 180.13 0.41ZM200.66 0.13L200.66 0.13L199.88 0.13L199.88 0.13Q197.25 0.13 197.25-1.63L197.25-1.63L197.25-1.63Q197.25-1.75 201.77-8.17L201.77-8.17L201.77-8.17Q206.28-14.59 206.28-15.59L206.28-15.59L206.28-15.59Q206.28-16.59 202.25-22.38L202.25-22.38L202.25-22.38Q201.13-24 199.27-26.08L199.27-26.08L199.27-26.08Q197.41-28.16 197.41-28.94L197.41-28.94L197.41-28.94Q197.41-30.72 201.88-30.72L201.88-30.72L201.88-30.72Q205.13-30.72 206.44-29.09L206.44-29.09L206.44-29.09Q206.69-28.78 207.06-27.77L207.06-27.77L207.06-27.77Q207.44-26.75 208.44-24.91L208.44-24.91L208.44-24.91Q210.63-20.91 211.56-20.91L211.56-20.91L211.56-20.91Q212.31-20.91 214.84-25.03L214.84-25.03L214.84-25.03Q215.84-26.66 216.36-28.06L216.36-28.06L216.36-28.06Q216.88-29.47 217.06-29.72L217.06-29.72L217.06-29.72Q218-30.94 220-30.94L220-30.94L220-30.94Q223.78-30.94 223.78-29.59L223.78-29.59L223.78-29.59Q223.78-28.81 219.44-23.28L219.44-23.28L219.44-23.28Q215.09-17.75 215.09-16.14L215.09-16.14L215.09-16.14Q215.09-14.53 219.72-8.41L219.72-8.41L219.72-8.41Q221.25-6.38 222.95-4.72L222.95-4.72L222.95-4.72Q224.66-3.06 224.66-2.13L224.66-2.13L224.66-2.13Q224.66-0.38 219.47-0.34L219.47-0.34L219.47-0.34Q216.88-0.34 215.72-1.81L215.72-1.81L215.72-1.81Q215.50-2.09 214.98-3.28L214.98-3.28L214.98-3.28Q214.47-4.47 213.75-5.72L213.75-5.72L213.75-5.72Q210.94-10.56 210.19-10.56L210.19-10.56L210.19-10.56Q209.25-10.56 206.56-6.09L206.56-6.09L206.56-6.09Q205.78-4.78 205.17-3.11L205.17-3.11L205.17-3.11Q204.56-1.44 204.44-1.25L204.44-1.25L204.44-1.25Q203.44 0.13 200.66 0.13ZM242.91-0.13L242.91-0.13L241.72-0.13L241.72-0.13Q237.22-0.13 235.25-4L235.25-4L235.25-4Q233.63-7.16 233.63-14.38L233.63-14.38L233.63-14.38Q233.63-21.59 232.84-24.28L232.84-24.28L232.84-24.28Q232.56-25.28 231.28-26.56L231.28-26.56L231.28-26.56Q230-27.84 230-28.78L230-28.78L230-29.19L230-29.19Q230-30 231.47-30.97L231.47-30.97L231.47-30.97Q232.94-31.94 233.17-32.36L233.17-32.36L233.17-32.36Q233.41-32.78 234.11-35.39L234.11-35.39L234.11-35.39Q234.81-38 235.58-39.05L235.58-39.05L235.58-39.05Q236.34-40.09 237.64-40.09L237.64-40.09L237.64-40.09Q238.94-40.09 239.48-39.34L239.48-39.34L239.48-39.34Q240.03-38.59 240.58-36.25L240.58-36.25L240.58-36.25Q241.13-33.91 241.78-33.08L241.78-33.08L241.78-33.08Q242.44-32.25 244.97-31.34L244.97-31.34L244.97-31.34Q247.50-30.44 247.50-29.09L247.50-29.09L247.50-29.09Q247.50-27.91 244.86-26.97L244.86-26.97L244.86-26.97Q242.22-26.03 241.53-24.66L241.53-24.66L241.53-24.66Q240.22-22 240.22-15.25L240.22-15.25L240.22-15.25Q240.22-8.50 241.38-6.98L241.38-6.98L241.38-6.98Q242.53-5.47 245.14-5.13L245.14-5.13L245.14-5.13Q247.75-4.78 247.75-3.16L247.75-3.16L247.75-3.16Q247.75-1.91 246.27-1.02L246.27-1.02L246.27-1.02Q244.78-0.13 242.91-0.13ZM299-19.63L299-19.09L299-19.09Q299-17.06 298.09-16.67L298.09-16.67L298.09-16.67Q297.19-16.28 292.63-16.28L292.63-16.28L292.63-16.28Q288.06-16.28 287.86-15.89L287.86-15.89L287.86-15.89Q287.66-15.50 287.66-10.84L287.66-10.84L287.66-10.84Q287.66-6.19 287.22-5.42L287.22-5.42L287.22-5.42Q286.78-4.66 285.09-4.66L285.09-4.66L284.56-4.66L284.56-4.66Q283.22-4.66 282.94-5.84L282.94-5.84L282.94-5.84Q282.78-6.50 282.78-11.08L282.78-11.08L282.78-11.08Q282.78-15.66 282.58-15.91L282.58-15.91L282.58-15.91Q282.38-16.16 277.75-16.16L277.75-16.16L277.75-16.16Q273.13-16.16 272.38-16.48L272.38-16.48L272.38-16.48Q271.63-16.81 271.63-17.97L271.63-17.97L271.63-18.50L271.63-18.50Q271.63-20.31 272.77-20.63L272.77-20.63L272.77-20.63Q273.91-20.94 278.16-20.94L278.16-20.94L278.16-20.94Q282.41-20.94 282.63-21.30L282.63-21.30L282.63-21.30Q282.84-21.66 282.84-26L282.84-26L282.84-26Q282.84-30.34 283.22-31.34L283.22-31.34L283.22-31.34Q283.59-32.34 285.39-32.34L285.39-32.34L285.39-32.34Q287.19-32.34 287.47-31.56L287.47-31.56L287.47-31.56Q287.75-30.78 287.75-26.09L287.75-26.09L287.75-26.09Q287.75-21.41 288.02-21.22L288.02-21.22L288.02-21.22Q288.28-21.03 292.83-21.03L292.83-21.03L292.83-21.03Q297.38-21.03 298.19-20.80L298.19-20.80L298.19-20.80Q299-20.56 299-19.63L299-19.63Z" fill="url(#editing-outline-gradient)"></path>
		</g>
	</g>
</svg>