<svg width="515.15px" height="138.8px" xmlns="http://www.w3.org/2000/svg" viewBox="-7.574999999999989 5.599999999999994 515.15 138.8" style="background: none;" preserveAspectRatio="xMidYMid"><defs><linearGradient id="editing-outline-gradient" x1="-0.41354545764260087" x2="1.4135454576426008" y1="0.09326335692419985" y2="0.9067366430758002"><stop offset="0" stop-color="#008080"></stop><stop offset="1" stop-color="#0f878e"></stop></linearGradient><filter id="editing-outline" x="-100%" y="-100%" width="300%" height="300%"><feMorphology in="SourceGraphic" operator="dilate" radius="1" result="outline"></feMorphology><feComposite operator="out" in="outline" in2="SourceAlpha"></feComposite></filter></defs><g filter="url(#editing-outline)"><g transform="translate(68.84496736526489, 100.34500312805176)"><path d="M37.44-49.79L48.26-10.50L50.82-10.50L50.82 0L25.73 0L25.73-10.50L29.57-10.50L28.54-15.62L19.84-15.62L18.82-10.50L22.66-10.50L22.66 0L0.77 0L0.77-10.50L3.33-10.50L14.14-49.79L37.44-49.79ZM23.87-35.14L21.25-22.40L27.14-22.40L24.51-35.14L23.87-35.14ZM65.34 0.90L65.34 0.90Q58.82 0.90 55.52-3.97L55.52-3.97L55.52-3.97Q52.22-8.83 52.22-17.79L52.22-17.79L52.22-17.79Q52.22-26.75 55.52-31.62L55.52-31.62L55.52-31.62Q58.82-36.48 65.34-36.48L65.34-36.48L65.34-36.48Q68.61-36.48 71.14-34.88L71.14-34.88L71.14-34.88Q73.66-33.28 75.26-31.23L75.26-31.23L75.26-39.30L71.49-39.30L71.49-49.79L89.98-49.79L89.98-10.50L92.80-10.50L92.80 0L75.26 0L75.26-4.35L75.26-4.35Q73.66-2.30 71.14-0.70L71.14-0.70L71.14-0.70Q68.61 0.90 65.34 0.90L65.34 0.90ZM71.55-10.50L71.55-10.50Q73.41-10.50 74.34-11.49L74.34-11.49L74.34-11.49Q75.26-12.48 75.26-14.59L75.26-14.59L75.26-20.99L75.26-20.99Q75.26-23.10 74.34-24.10L74.34-24.10L74.34-24.10Q73.41-25.09 71.55-25.09L71.55-25.09L71.55-25.09Q69.70-25.09 68.77-24.10L68.77-24.10L68.77-24.10Q67.84-23.10 67.84-20.99L67.84-20.99L67.84-14.59L67.84-14.59Q67.84-12.48 68.77-11.49L68.77-11.49L68.77-11.49Q69.70-10.50 71.55-10.50L71.55-10.50ZM107.46 0.90L107.46 0.90Q100.93 0.90 97.63-3.97L97.63-3.97L97.63-3.97Q94.34-8.83 94.34-17.79L94.34-17.79L94.34-17.79Q94.34-26.75 97.63-31.62L97.63-31.62L97.63-31.62Q100.93-36.48 107.46-36.48L107.46-36.48L107.46-36.48Q110.72-36.48 113.25-34.88L113.25-34.88L113.25-34.88Q115.78-33.28 117.38-31.23L117.38-31.23L117.38-39.30L113.60-39.30L113.60-49.79L132.10-49.79L132.10-10.50L134.91-10.50L134.91 0L117.38 0L117.38-4.35L117.38-4.35Q115.78-2.30 113.25-0.70L113.25-0.70L113.25-0.70Q110.72 0.90 107.46 0.90L107.46 0.90ZM113.66-10.50L113.66-10.50Q115.52-10.50 116.45-11.49L116.45-11.49L116.45-11.49Q117.38-12.48 117.38-14.59L117.38-14.59L117.38-20.99L117.38-20.99Q117.38-23.10 116.45-24.10L116.45-24.10L116.45-24.10Q115.52-25.09 113.66-25.09L113.66-25.09L113.66-25.09Q111.81-25.09 110.88-24.10L110.88-24.10L110.88-24.10Q109.95-23.10 109.95-20.99L109.95-20.99L109.95-14.59L109.95-14.59Q109.95-12.48 110.88-11.49L110.88-11.49L110.88-11.49Q111.81-10.50 113.66-10.50L113.66-10.50ZM204.03-49.79L204.03-34.30L193.02-34.30L193.02-39.30L188.93-39.30L188.93-10.50L193.41-10.50L193.41 0L166.53 0L166.53-10.50L171.01-10.50L171.01-39.30L166.91-39.30L166.91-34.30L155.90-34.30L155.90-49.79L204.03-49.79ZM220.67 0.90L220.67 0.90Q211.58 0.90 206.46-3.87L206.46-3.87L206.46-3.87Q201.34-8.64 201.34-17.79L201.34-17.79L201.34-17.79Q201.34-26.94 206.46-31.71L206.46-31.71L206.46-31.71Q211.58-36.48 220.67-36.48L220.67-36.48L220.67-36.48Q229.70-36.48 233.70-31.78L233.70-31.78L233.70-31.78Q237.70-27.07 237.70-20.10L237.70-20.10L237.70-15.49L216.96-15.49L216.96-15.10L216.96-15.10Q216.96-12.74 218.37-11.62L218.37-11.62L218.37-11.62Q219.78-10.50 223.04-10.50L223.04-10.50L223.04-10.50Q226.94-10.50 230.46-11.07L230.46-11.07L230.46-11.07Q233.98-11.65 236.61-12.54L236.61-12.54L236.61-2.30L236.61-2.30Q234.37-1.09 230.05-0.10L230.05-0.10L230.05-0.10Q225.73 0.90 220.67 0.90L220.67 0.90ZM216.96-22.53L224.38-22.53L224.38-23.30L224.38-23.30Q224.38-25.47 223.46-26.43L223.46-26.43L223.46-26.43Q222.53-27.39 220.67-27.39L220.67-27.39L220.67-27.39Q218.82-27.39 217.89-26.40L217.89-26.40L217.89-26.40Q216.96-25.41 216.96-23.30L216.96-23.30L216.96-22.53ZM268.10-18.30L276.35-10.50L278.40-10.50L278.40 0L258.43 0L258.43-10.50L260.22-10.50L257.73-14.27L257.09-14.27L254.59-10.50L256.38-10.50L256.38 0L239.23 0L239.23-10.50L241.92-10.50L249.66-17.41L241.54-25.09L239.49-25.09L239.49-35.58L259.46-35.58L259.46-25.09L257.66-25.09L260.16-21.38L260.80-21.38L263.30-25.09L261.50-25.09L261.50-35.58L278.14-35.58L278.14-25.09L275.46-25.09L268.10-18.30ZM296.13 0.90L296.13 0.90Q289.34 0.90 285.92-2.40L285.92-2.40L285.92-2.40Q282.50-5.70 282.50-13.50L282.50-13.50L282.50-25.09L279.68-25.09L279.68-35.58L279.68-35.58Q282.11-35.58 283.33-36.83L283.33-36.83L283.33-36.83Q284.54-38.08 284.54-40.26L284.54-40.26L284.54-43.14L298.11-43.14L298.11-35.58L306.75-35.58L306.75-25.09L298.11-25.09L298.11-14.59L298.11-14.59Q298.11-12.48 299.04-11.49L299.04-11.49L299.04-11.49Q299.97-10.50 301.82-10.50L301.82-10.50L301.82-10.50Q304.26-10.50 307.14-11.07L307.14-11.07L307.14-1.02L307.14-1.02Q305.34-0.32 302.30 0.29L302.30 0.29L302.30 0.29Q299.26 0.90 296.13 0.90L296.13 0.90ZM351.04-6.02L340.35-6.02L340.35-16.58L329.79-16.58L329.79-27.26L340.35-27.26L340.35-37.82L351.04-37.82L351.04-27.26L361.54-27.26L361.54-16.58L351.04-16.58L351.04-6.02Z" fill="url(#editing-outline-gradient)"></path></g></g><style>text {
  font-size: 64px;
  font-family: Arial Black;
  dominant-baseline: central;
  text-anchor: middle;
}</style></svg>