<svg width="430.19374999999997px" height="148.4px" xmlns="http://www.w3.org/2000/svg" viewBox="34.90312500000002 0.7999999999999972 430.19374999999997 148.4" style="background: none;" preserveAspectRatio="xMidYMid"><defs><linearGradient id="editing-outline-gradient" x1="-0.41354545764260087" x2="1.4135454576426008" y1="0.09326335692419985" y2="0.9067366430758002"><stop offset="0" stop-color="#008080"></stop><stop offset="1" stop-color="#0f878e"></stop></linearGradient><filter id="editing-outline" x="-100%" y="-100%" width="300%" height="300%"><feMorphology in="SourceGraphic" operator="dilate" radius="1" result="outline"></feMorphology><feComposite operator="out" in="outline" in2="SourceAlpha"></feComposite></filter></defs><g filter="url(#editing-outline)"><g transform="translate(104.40881443023682, 98.10500144958496)"><path d="M-0.19 0L-0.96-1.98L0.38-2.30L0.38-2.30Q2.75-3.01 3.78-4L3.78-4L3.78-4Q4.80-4.99 5.70-7.68L5.70-7.68L14.78-33.92L14.78-33.92Q15.42-35.97 15.42-36.74L15.42-36.74L15.42-36.74Q15.42-37.82 14.82-38.43L14.82-38.43L14.82-38.43Q14.21-39.04 12.86-39.30L12.86-39.30L11.52-39.62L12.22-41.60L23.36-41.60L35.07-8.06L35.07-8.06Q36.03-5.31 37.09-3.97L37.09-3.97L37.09-3.97Q38.14-2.62 40.32-0.96L40.32-0.96L39.55 0L26.43 0L25.79-1.98L27.20-2.30L27.20-2.30Q28.54-2.62 29.15-3.23L29.15-3.23L29.15-3.23Q29.76-3.84 29.76-4.93L29.76-4.93L29.76-4.93Q29.76-5.57 29.47-6.43L29.47-6.43L29.47-6.43Q29.18-7.30 29.06-7.68L29.06-7.68L26.30-15.81L12.93-15.81L11.52-11.58L11.52-11.58Q10.24-7.62 10.24-5.50L10.24-5.50L10.24-5.50Q10.24-3.39 11.07-1.98L11.07-1.98L11.52-0.96L10.43 0L-0.19 0ZM19.58-35.71L14.21-19.46L25.15-19.46L19.58-35.71ZM52.10 0.83L52.10 0.83Q49.28 0.83 46.88-0.80L46.88-0.80L46.88-0.80Q44.48-2.43 43.04-5.60L43.04-5.60L43.04-5.60Q41.60-8.77 41.60-13.31L41.60-13.31L41.60-13.31Q41.60-20.80 45.66-25.15L45.66-25.15L45.66-25.15Q49.73-29.50 56.64-29.50L56.64-29.50L56.64-29.50Q60.03-29.50 62.14-28.80L62.14-28.80L62.14-39.10L62.14-39.10Q62.14-39.81 61.89-40.10L61.89-40.10L61.89-40.10Q61.63-40.38 61.06-40.38L61.06-40.38L58.50-40.38L57.98-41.86L57.98-41.86Q59.58-43.39 61.76-44.38L61.76-44.38L61.76-44.38Q63.94-45.38 65.54-45.38L65.54-45.38L65.54-45.38Q66.37-45.38 66.88-44.86L66.88-44.86L66.88-44.86Q67.39-44.35 67.39-43.52L67.39-43.52L67.39-5.12L67.39-5.12Q67.39-3.33 69.25-3.33L69.25-3.33L69.25-3.33Q70.66-3.33 72.13-4.35L72.13-4.35L73.22-2.88L73.22-2.88Q71.68-1.15 69.95-0.16L69.95-0.16L69.95-0.16Q68.22 0.83 66.82 0.83L66.82 0.83L66.82 0.83Q64.38 0.83 63.30-0.61L63.30-0.61L63.30-0.61Q62.21-2.05 62.21-5.31L62.21-5.31L62.21-5.31Q59.90-1.92 57.44-0.54L57.44-0.54L57.44-0.54Q54.98 0.83 52.10 0.83L52.10 0.83ZM54.34-3.71L54.34-3.71Q59.20-3.71 62.21-8.96L62.21-8.96L62.21-24.64L62.21-24.64Q59.71-26.30 56.58-26.30L56.58-26.30L56.58-26.30Q52.42-26.30 50.08-23.20L50.08-23.20L50.08-23.20Q47.74-20.10 47.74-14.40L47.74-14.40L47.74-14.40Q47.74-8.90 49.63-6.30L49.63-6.30L49.63-6.30Q51.52-3.71 54.34-3.71L54.34-3.71ZM87.04 0.83L87.04 0.83Q84.22 0.83 81.82-0.80L81.82-0.80L81.82-0.80Q79.42-2.43 77.98-5.60L77.98-5.60L77.98-5.60Q76.54-8.77 76.54-13.31L76.54-13.31L76.54-13.31Q76.54-20.80 80.61-25.15L80.61-25.15L80.61-25.15Q84.67-29.50 91.58-29.50L91.58-29.50L91.58-29.50Q94.98-29.50 97.09-28.80L97.09-28.80L97.09-39.10L97.09-39.10Q97.09-39.81 96.83-40.10L96.83-40.10L96.83-40.10Q96.58-40.38 96.00-40.38L96.00-40.38L93.44-40.38L92.93-41.86L92.93-41.86Q94.53-43.39 96.70-44.38L96.70-44.38L96.70-44.38Q98.88-45.38 100.48-45.38L100.48-45.38L100.48-45.38Q101.31-45.38 101.82-44.86L101.82-44.86L101.82-44.86Q102.34-44.35 102.34-43.52L102.34-43.52L102.34-5.12L102.34-5.12Q102.34-3.33 104.19-3.33L104.19-3.33L104.19-3.33Q105.60-3.33 107.07-4.35L107.07-4.35L108.16-2.88L108.16-2.88Q106.62-1.15 104.90-0.16L104.90-0.16L104.90-0.16Q103.17 0.83 101.76 0.83L101.76 0.83L101.76 0.83Q99.33 0.83 98.24-0.61L98.24-0.61L98.24-0.61Q97.15-2.05 97.15-5.31L97.15-5.31L97.15-5.31Q94.85-1.92 92.38-0.54L92.38-0.54L92.38-0.54Q89.92 0.83 87.04 0.83L87.04 0.83ZM89.28-3.71L89.28-3.71Q94.14-3.71 97.15-8.96L97.15-8.96L97.15-24.64L97.15-24.64Q94.66-26.30 91.52-26.30L91.52-26.30L91.52-26.30Q87.36-26.30 85.02-23.20L85.02-23.20L85.02-23.20Q82.69-20.10 82.69-14.40L82.69-14.40L82.69-14.40Q82.69-8.90 84.58-6.30L84.58-6.30L84.58-6.30Q86.46-3.71 89.28-3.71L89.28-3.71ZM140.48 0L139.78-0.96L140.48-1.98L140.48-1.98Q141.95-3.90 142.53-5.98L142.53-5.98L142.53-5.98Q143.10-8.06 143.10-11.65L143.10-11.65L143.10-33.92L143.10-33.92Q143.10-36.67 142.72-37.54L142.72-37.54L142.72-37.54Q142.34-38.40 141.06-38.40L141.06-38.40L138.43-38.40L138.43-38.40Q136.32-38.40 135.20-37.95L135.20-37.95L135.20-37.95Q134.08-37.50 133.41-36.42L133.41-36.42L133.41-36.42Q132.74-35.33 132.16-33.22L132.16-33.22L131.84-31.81L129.86-32.51L129.86-42.82L130.82-43.58L131.84-42.82L131.84-42.82Q133.38-41.60 138.37-41.60L138.37-41.60L153.54-41.60L153.54-41.60Q158.59-41.60 160.06-42.82L160.06-42.82L161.09-43.58L162.05-42.82L162.05-32.51L160.06-31.81L159.74-33.22L159.74-33.22Q158.91-36.35 157.70-37.38L157.70-37.38L157.70-37.38Q156.48-38.40 153.47-38.40L153.47-38.40L150.78-38.40L150.78-38.40Q149.57-38.40 149.15-37.50L149.15-37.50L149.15-37.50Q148.74-36.61 148.74-33.92L148.74-33.92L148.74-7.68L148.74-7.68Q148.74-4.99 149.47-4L149.47-4L149.47-4Q150.21-3.01 152.51-2.30L152.51-2.30L153.92-1.98L153.22 0L140.48 0ZM174.78 0.83L174.78 0.83Q170.75 0.83 167.74-1.02L167.74-1.02L167.74-1.02Q164.74-2.88 163.07-6.24L163.07-6.24L163.07-6.24Q161.41-9.60 161.41-14.02L161.41-14.02L161.41-14.02Q161.41-18.62 163.26-22.14L163.26-22.14L163.26-22.14Q165.12-25.66 168.54-27.58L168.54-27.58L168.54-27.58Q171.97-29.50 176.45-29.50L176.45-29.50L176.45-29.50Q181.18-29.50 183.78-27.01L183.78-27.01L183.78-27.01Q186.37-24.51 186.37-20.99L186.37-20.99L186.37-20.99Q186.37-18.56 185.06-16.32L185.06-16.32L185.06-16.32Q183.74-14.08 181.22-12.67L181.22-12.67L181.22-12.67Q178.69-11.26 175.30-11.26L175.30-11.26L175.30-11.26Q173.38-11.26 171.14-11.94L171.14-11.94L171.14-11.94Q168.90-12.61 168.90-13.95L168.90-13.95L168.90-13.95Q168.90-14.46 169.15-14.85L169.15-14.85L169.15-14.85Q169.41-15.23 169.73-15.23L169.73-15.23L169.73-15.23Q169.92-15.23 170.91-14.88L170.91-14.88L170.91-14.88Q171.90-14.53 173.50-14.53L173.50-14.53L173.50-14.53Q177.02-14.53 178.94-16.45L178.94-16.45L178.94-16.45Q180.86-18.37 180.86-21.06L180.86-21.06L180.86-21.06Q180.86-23.36 179.36-25.02L179.36-25.02L179.36-25.02Q177.86-26.69 175.36-26.69L175.36-26.69L175.36-26.69Q171.58-26.69 169.50-23.39L169.50-23.39L169.50-23.39Q167.42-20.10 167.42-14.02L167.42-14.02L167.42-14.02Q167.42-8.83 169.63-5.92L169.63-5.92L169.63-5.92Q171.84-3.01 176-3.01L176-3.01L176-3.01Q181.12-3.01 184.45-6.34L184.45-6.34L184.45-6.34Q184.64-6.53 184.96-6.53L184.96-6.53L184.96-6.53Q185.47-6.53 186.02-6.02L186.02-6.02L186.02-6.02Q186.56-5.50 186.56-4.93L186.56-4.93L186.56-4.93Q186.56-4.74 186.43-4.58L186.43-4.58L186.43-4.58Q186.30-4.42 186.30-4.35L186.30-4.35L186.30-4.35Q184.13-1.79 181.15-0.48L181.15-0.48L181.15-0.48Q178.18 0.83 174.78 0.83L174.78 0.83ZM215.04 0.83L215.04 0.83Q211.07 0.83 208.90-3.26L208.90-3.26L204.16-11.26L204.16-11.26Q198.98-5.44 198.98-3.71L198.98-3.71L198.98-3.71Q198.98-3.14 199.26-2.72L199.26-2.72L199.26-2.72Q199.55-2.30 200.13-1.79L200.13-1.79L201.22-0.90L200.58 0L191.55 0L190.85-1.22L190.85-1.22Q197.57-7.81 202.94-13.44L202.94-13.44L196.54-24.32L196.54-24.32Q196.03-25.22 195.46-25.57L195.46-25.57L195.46-25.57Q194.88-25.92 194.11-25.92L194.11-25.92L194.11-25.92Q193.47-25.92 191.94-25.22L191.94-25.22L190.66-26.88L190.66-26.88Q193.09-29.50 196.03-29.50L196.03-29.50L196.03-29.50Q200.06-29.50 202.18-25.54L202.18-25.54L206.85-17.60L206.85-17.60Q211.97-23.49 211.97-25.22L211.97-25.22L211.97-25.22Q211.97-25.73 211.71-26.11L211.71-26.11L211.71-26.11Q211.46-26.50 210.88-27.07L210.88-27.07L209.60-27.97L210.37-28.80L219.46-28.80L220.03-27.65L218.50-26.11L218.50-26.11Q212.54-20.29 208.06-15.42L208.06-15.42L214.53-4.48L214.53-4.48Q215.04-3.52 215.58-3.20L215.58-3.20L215.58-3.20Q216.13-2.88 216.96-2.88L216.96-2.88L216.96-2.88Q217.98-2.88 219.07-3.58L219.07-3.58L220.42-1.86L220.42-1.86Q219.01-0.45 217.76 0.19L217.76 0.19L217.76 0.19Q216.51 0.83 215.04 0.83L215.04 0.83ZM232.26 0.83L232.26 0.83Q229.89 0.83 228.54-0.67L228.54-0.67L228.54-0.67Q227.20-2.18 227.20-4.80L227.20-4.80L227.20-25.22L222.14-25.22L222.14-25.22Q222.14-26.75 222.40-27.23L222.40-27.23L222.40-27.23Q222.66-27.71 223.55-27.97L223.55-27.97L223.55-27.97Q226.62-28.74 227.90-30.53L227.90-30.53L227.90-30.53Q229.18-32.32 229.82-35.26L229.82-35.26L229.82-35.26Q229.95-36.16 230.43-36.38L230.43-36.38L230.43-36.38Q230.91-36.61 232.58-36.61L232.58-36.61L232.58-28.80L240.06-28.80L240.06-28.80Q240.06-27.58 239.71-26.62L239.71-26.62L239.71-26.62Q239.36-25.66 238.78-25.22L238.78-25.22L232.58-25.22L232.58-6.46L232.58-6.46Q232.58-4.67 233.06-3.94L233.06-3.94L233.06-3.94Q233.54-3.20 234.75-3.20L234.75-3.20L234.75-3.20Q236.48-3.20 238.66-5.06L238.66-5.06L239.74-3.52L239.74-3.52Q238.27-1.60 236.16-0.38L236.16-0.38L236.16-0.38Q234.05 0.83 232.26 0.83L232.26 0.83ZM281.09-8.45L276.80-8.45L276.80-18.56L266.69-18.56L266.69-22.85L276.80-22.85L276.80-33.09L281.09-33.09L281.09-22.85L291.26-22.85L291.26-18.56L281.09-18.56L281.09-8.45Z" fill="url(#editing-outline-gradient)"></path></g></g><style>text {
  font-size: 64px;
  font-family: Arial Black;
  dominant-baseline: central;
  text-anchor: middle;
}</style></svg>