<?xml version="1.0" standalone="no"?>
<!DOCTYPE svg PUBLIC "-//W3C//DTD SVG 20010904//EN"
 "http://www.w3.org/TR/2001/REC-SVG-20010904/DTD/svg10.dtd">
<svg version="1.0" xmlns="http://www.w3.org/2000/svg"
 width="199.000000pt" height="35.000000pt" viewBox="0 0 199.000000 35.000000"
 preserveAspectRatio="xMidYMid meet">
<metadata>
Created by potrace 1.16, written by Peter Selinger 2001-2019
</metadata>
<g transform="translate(0.000000,35.000000) scale(0.100000,-0.100000)"
fill="#000000" stroke="none">
<path d="M160 321 c-5 -11 -24 -57 -40 -103 -17 -46 -35 -93 -41 -105 -7 -12
-9 -33 -5 -47 5 -21 12 -26 36 -26 22 0 30 5 30 18 0 30 29 62 56 62 21 0 29
-8 42 -41 14 -36 19 -40 46 -37 25 2 32 8 34 30 4 30 -63 223 -86 251 -20 23
-59 22 -72 -2z m60 -21 c17 -32 80 -209 80 -225 0 -28 -30 -15 -44 20 -26 61
-112 59 -130 -3 -9 -31 -20 -40 -30 -24 -5 9 70 220 86 240 15 17 26 15 38 -8z"/>
<path d="M454 327 c-2 -7 -3 -23 -2 -36 3 -20 -3 -26 -36 -35 -56 -16 -81 -54
-80 -121 0 -83 18 -96 118 -93 77 3 81 4 80 26 0 12 -1 78 -2 147 l-2 125 -35
0 c-20 0 -38 -6 -41 -13z m51 -9 c2 -7 5 -68 7 -135 l3 -121 -50 -4 c-66 -6
-89 4 -105 41 -24 60 10 128 70 137 38 6 40 8 40 44 0 20 3 40 7 43 10 11 23
8 28 -5z"/>
<path d="M678 303 c-3 -34 -7 -38 -42 -48 -57 -16 -76 -45 -76 -115 0 -89 15
-102 115 -98 l80 3 -1 28 c0 15 -1 81 -2 147 l-2 120 -34 0 c-33 0 -35 -2 -38
-37z m55 -114 l5 -127 -51 -5 c-66 -6 -95 7 -106 50 -19 69 24 133 88 133 20
0 41 43 27 57 -3 3 -1 12 6 20 20 24 25 1 31 -128z"/>
<path d="M897 333 c-14 -3 -17 -13 -15 -36 3 -31 5 -32 42 -29 l39 3 -6 -115
-5 -116 45 0 44 0 -7 79 c-3 44 -3 96 0 115 7 34 9 36 47 36 39 0 40 1 37 33
l-3 32 -100 2 c-55 0 -108 -1 -118 -4z m201 -30 c2 -9 -8 -13 -32 -13 -20 0
-39 -6 -41 -12 -3 -7 -6 -60 -7 -118 -3 -97 -5 -105 -23 -105 -18 0 -19 8 -20
115 l0 115 -38 0 c-34 0 -47 12 -30 29 13 12 186 2 191 -11z"/>
<path d="M1506 269 c-14 -31 -16 -46 -8 -67 6 -15 13 -51 16 -81 7 -69 19 -83
70 -79 34 2 42 7 44 25 2 13 -1 23 -7 23 -18 0 -41 31 -41 56 0 14 11 36 25
50 30 30 32 50 6 64 -11 5 -23 19 -26 30 -4 14 -15 20 -33 20 -22 0 -31 -9
-46 -41z"/>
<path d="M1144 250 c-36 -14 -54 -50 -54 -108 0 -66 11 -87 51 -101 65 -23
129 -5 129 36 0 22 -4 24 -45 22 -68 -4 -80 17 -15 26 60 8 79 33 63 82 -15
45 -75 65 -129 43z m98 -40 c28 -38 15 -58 -44 -66 -55 -7 -70 -26 -44 -52 10
-11 31 -16 58 -15 40 2 41 1 24 -13 -44 -32 -117 -3 -130 52 -23 89 85 163
136 94z"/>
<path d="M1405 238 c-15 -21 -17 -22 -26 -5 -7 12 -22 17 -49 17 -35 0 -40 -3
-40 -22 1 -13 12 -36 25 -53 l24 -29 -24 -32 c-26 -34 -32 -68 -14 -79 18 -12
57 4 64 25 8 26 22 26 30 0 5 -16 15 -20 46 -20 33 0 39 3 39 21 0 11 -12 36
-26 54 l-26 34 26 34 c30 39 33 62 10 71 -28 11 -42 7 -59 -16z"/>
<path d="M1820 225 c0 -33 -2 -35 -35 -35 -31 0 -35 -3 -35 -25 0 -22 4 -25
34 -25 33 0 35 -2 38 -37 3 -33 6 -38 28 -38 22 0 25 5 28 37 3 36 5 38 38 38
30 0 34 3 34 25 0 22 -4 25 -35 25 -33 0 -35 2 -35 35 0 32 -2 35 -30 35 -28
0 -30 -3 -30 -35z"/>
</g>
</svg>
