<svg width="377.3375px" height="141.2px" xmlns="http://www.w3.org/2000/svg" viewBox="61.33125000000001 4.400000000000006 377.3375 141.2" style="background: none;" preserveAspectRatio="xMidYMid"><defs><linearGradient id="editing-outline-gradient" x1="-0.41354545764260087" x2="1.4135454576426008" y1="0.09326335692419985" y2="0.9067366430758002"><stop offset="0" stop-color="#008080"></stop><stop offset="1" stop-color="#0f878e"></stop></linearGradient><filter id="editing-outline" x="-100%" y="-100%" width="300%" height="300%"><feMorphology in="SourceGraphic" operator="dilate" radius="1" result="outline"></feMorphology><feComposite operator="out" in="outline" in2="SourceAlpha"></feComposite></filter></defs><g filter="url(#editing-outline)"><g transform="translate(118.15498840808868, 100.56499862670898)"><path d="M34.31-22.88L34.31-22.88L36.06-22.88L36.06-22.88Q37.13-22.88 38.09-22.69L38.09-22.69L38.09-22.69Q39.06-22.50 39.06-21.31L39.06-21.31L39.06-21.31Q39.50-18.81 36.13-18.88L36.13-18.88L36.13-18.88Q35.19-18.94 34.41-19L34.41-19L34.41-19Q33.63-19.06 33.13-19.03L33.13-19.03L33.13-19.03Q32.63-19 32.69-18.69L32.69-18.69L32.69-18.69Q33.31-16.88 34.03-14.63L34.03-14.63L34.03-14.63Q34.75-12.38 35.63-10.13L35.63-10.13L35.63-10.13Q37.88-4.56 39.88-2.13L39.88-2.13L39.88-2.13Q38.81-0.81 37.41 0.06L37.41 0.06L37.41 0.06Q36 0.94 35.91 0.94L35.91 0.94L35.91 0.94Q35.81 0.94 35.75 0.88L35.75 0.88L26.94-17.69L9.88-13.50L9.25-10.88L9.25-10.88Q7.44-3.69 5.19-0.88L5.19-0.88L5.19-0.88Q4.81-0.25 3.63-0.75L3.63-0.75L3.63-0.75Q1.63-1.50 1.63-2L1.63-2L1.63-2Q1.63-2.13 2.94-5.63L2.94-5.63L2.94-5.63Q4.25-9.13 5.59-12.72L5.59-12.72L5.59-12.72Q6.94-16.31 8.41-20.25L8.41-20.25L8.41-20.25Q9.88-24.19 11.19-27.75L11.19-27.75L11.19-27.75Q12.50-31.31 13.56-34.16L13.56-34.16L13.56-34.16Q14.63-37 15.06-38.28L15.06-38.28L15.06-38.28Q15.50-39.56 15.66-40.53L15.66-40.53L15.66-40.53Q15.81-41.50 16.13-42.19L16.13-42.19L16.13-42.19Q16.75-43.63 19.25-43.63L19.25-43.63L19.25-43.63Q21.94-42.13 23.41-39.72L23.41-39.72L23.41-39.72Q24.88-37.31 25.91-34.56L25.91-34.56L25.91-34.56Q26.94-31.81 27.94-29L27.94-29L27.94-29Q28.94-26.19 30.63-23.88L30.63-23.88L30.63-23.88Q31.19-23 32.31-22.94L32.31-22.94L32.31-22.94Q33.44-22.88 34.31-22.88ZM18.69-36.38L18.69-36.38L18.69-36.38Q18.19-32.56 16.44-28.56L16.44-28.56L16.44-28.56Q14.69-24.56 13.63-22.34L13.63-22.34L13.63-22.34Q12.56-20.13 11.81-18.25L11.81-18.25L11.81-18.25Q16.06-18.25 22.25-20.75L22.25-20.75L22.25-20.75Q23.81-21.44 25.25-22L25.25-22L25.25-22Q22.31-34.56 18.69-36.38ZM72.25-50.19L72.25-50.19Q72.25-44.19 71.91-38.47L71.91-38.47L71.91-38.47Q71.56-32.75 71.28-27.28L71.28-27.28L71.28-27.28Q71-21.81 71-15.66L71-15.66L71-15.66Q71-9.50 71.88-2.63L71.88-2.63L71.88-2.63Q71.88-1.19 71.34-0.56L71.34-0.56L71.34-0.56Q70.81 0.06 69.56 0.06L69.56 0.06L69.56 0.06Q66.63 0.06 66.63-4.81L66.63-4.81L66.63-6.88L66.63-6.88Q57.75-0.25 51.63-0.25L51.63-0.25L51.63-0.25Q49.19-0.25 46.66-1.44L46.66-1.44L46.66-1.44Q44.13-2.63 41.88-6.25L41.88-6.25L41.88-6.25Q41.56-7.75 41.56-9.31L41.56-9.31L41.56-9.31Q41.56-10.88 42.16-13.09L42.16-13.09L42.16-13.09Q42.75-15.31 44.59-17.69L44.59-17.69L44.59-17.69Q46.44-20.06 49.06-21.88L49.06-21.88L49.06-21.88Q54.81-25.75 61.50-25.75L61.50-25.75L61.50-25.75Q64.38-25.75 67-24.88L67-24.88L67-24.88Q67-26 67.16-28.81L67.16-28.81L67.16-28.81Q67.31-31.63 67.50-34.75L67.50-34.75L67.50-34.75Q67.88-42.88 68-44.34L68-44.34L68-44.34Q68.13-45.81 68.34-46.84L68.34-46.84L68.34-46.84Q68.56-47.88 69-48.63L69-48.63L69-48.63Q69.94-50.19 72.25-50.19L72.25-50.19ZM46.13-9.81L46.13-9.81L46.13-9.81Q46.13-4.88 49.69-4.88L49.69-4.88L49.69-4.88Q50.25-4.88 50.94-5L50.94-5L50.94-5Q53.50-5 57.25-6.50L57.25-6.50L57.25-6.50Q64.38-9.31 65.94-11.38L65.94-11.38L65.94-19.69L65.94-19.69Q65.94-21.88 62.38-21.88L62.38-21.88L62.38-21.88Q61.94-21.94 61.22-21.94L61.22-21.94L61.22-21.94Q60.50-21.94 59-21.63L59-21.63L59-21.63Q57.50-21.31 55.63-20.50L55.63-20.50L55.63-20.50Q53.75-19.69 51.94-18.50L51.94-18.50L51.94-18.50Q48.13-15.94 46.69-12.50L46.69-12.50L46.69-12.50Q46.13-11.19 46.13-9.81ZM105.06-50.19L105.06-50.19Q105.06-44.19 104.72-38.47L104.72-38.47L104.72-38.47Q104.38-32.75 104.09-27.28L104.09-27.28L104.09-27.28Q103.81-21.81 103.81-15.66L103.81-15.66L103.81-15.66Q103.81-9.50 104.69-2.63L104.69-2.63L104.69-2.63Q104.69-1.19 104.16-0.56L104.16-0.56L104.16-0.56Q103.63 0.06 102.38 0.06L102.38 0.06L102.38 0.06Q99.44 0.06 99.44-4.81L99.44-4.81L99.44-6.88L99.44-6.88Q90.56-0.25 84.44-0.25L84.44-0.25L84.44-0.25Q82-0.25 79.47-1.44L79.47-1.44L79.47-1.44Q76.94-2.63 74.69-6.25L74.69-6.25L74.69-6.25Q74.38-7.75 74.38-9.31L74.38-9.31L74.38-9.31Q74.38-10.88 74.97-13.09L74.97-13.09L74.97-13.09Q75.56-15.31 77.41-17.69L77.41-17.69L77.41-17.69Q79.25-20.06 81.88-21.88L81.88-21.88L81.88-21.88Q87.63-25.75 94.31-25.75L94.31-25.75L94.31-25.75Q97.19-25.75 99.81-24.88L99.81-24.88L99.81-24.88Q99.81-26 99.97-28.81L99.97-28.81L99.97-28.81Q100.13-31.63 100.31-34.75L100.31-34.75L100.31-34.75Q100.69-42.88 100.81-44.34L100.81-44.34L100.81-44.34Q100.94-45.81 101.16-46.84L101.16-46.84L101.16-46.84Q101.38-47.88 101.81-48.63L101.81-48.63L101.81-48.63Q102.75-50.19 105.06-50.19L105.06-50.19ZM78.94-9.81L78.94-9.81L78.94-9.81Q78.94-4.88 82.50-4.88L82.50-4.88L82.50-4.88Q83.06-4.88 83.75-5L83.75-5L83.75-5Q86.31-5 90.06-6.50L90.06-6.50L90.06-6.50Q97.19-9.31 98.75-11.38L98.75-11.38L98.75-19.69L98.75-19.69Q98.75-21.88 95.19-21.88L95.19-21.88L95.19-21.88Q94.75-21.94 94.03-21.94L94.03-21.94L94.03-21.94Q93.31-21.94 91.81-21.63L91.81-21.63L91.81-21.63Q90.31-21.31 88.44-20.50L88.44-20.50L88.44-20.50Q86.56-19.69 84.75-18.50L84.75-18.50L84.75-18.50Q80.94-15.94 79.50-12.50L79.50-12.50L79.50-12.50Q78.94-11.19 78.94-9.81ZM162.88-30.69L162.88-30.69L157.31-30.81L157.31-30.81Q155.13-30.81 152.25-30.38L152.25-30.38L152.25-30.38Q152.13-27.94 151.75-24.06L151.75-24.06L151.75-24.06Q150.44-10.31 150.44-6.22L150.44-6.22L150.44-6.22Q150.44-2.13 150.56-0.44L150.56-0.44L144.69 0L146.63-30.88L133.31-31.63L133.31-31.63Q132.81-31.63 132.53-32.44L132.53-32.44L132.53-32.44Q132.25-33.25 132.25-33.94L132.25-33.94L132.25-33.94Q132.25-34.63 132.81-35.44L132.81-35.44L132.81-35.44Q133.38-36.25 134.13-36.25L134.13-36.25L134.13-36.25Q138.69-36.06 143.31-35.63L143.31-35.63L143.31-35.63Q151.88-34.88 157.88-34.88L157.88-34.88L161.75-35L161.75-35Q166.31-35.13 170.81-36L170.81-36L170.81-36Q171.81-35.81 172.06-32.88L172.06-32.88L172.06-32.88Q172.13-32.25 172.13-31.88L172.13-31.88L172.13-31.88Q168-30.69 162.88-30.69ZM186.56-4.38L186.56-4.38L186.56-4.38Q192.06-4.38 203.13-9.38L203.13-9.38L203.13-9.38Q203.81-9.38 204.25-8.91L204.25-8.91L204.25-8.91Q204.69-8.44 204.69-7.81L204.69-7.81L204.69-7.81Q202.19-3.56 195.13-1.19L195.13-1.19L195.13-1.19Q188.06 1.19 181.94-0.38L181.94-0.38L181.94-0.38Q175-2.19 173.50-8.19L173.50-8.19L173.50-8.19Q173.38-9.38 173.38-11.38L173.38-11.38L173.38-11.38Q173.38-13.38 174.41-16.66L174.41-16.66L174.41-16.66Q175.44-19.94 177.94-22.88L177.94-22.88L177.94-22.88Q180.44-25.81 183.81-27.50L183.81-27.50L183.81-27.50Q187.19-29.19 191-29.19L191-29.19L191-29.19Q194.63-29.19 199.13-26.69L199.13-26.69L199.13-26.69Q201.25-25.50 202.50-24L202.50-24L202.50-24Q203.75-22.50 203.75-20.94L203.75-20.94L203.75-20.94Q203.75-20.50 203.69-20.06L203.69-20.06L203.69-20.06Q203.56-16.25 200-15.25L200-15.25L200-15.25Q198.44-14.81 196.38-14.81L196.38-14.81L187.38-15.19L187.38-15.19Q182.88-15.19 180.50-13.25L180.50-13.25L180.50-13.25Q179.13-12.19 178.56-10.06L178.56-10.06L178.56-10.06Q180.13-4.38 186.56-4.38ZM197.72-23.69L197.72-23.69L197.72-23.69Q196.31-24.69 194.81-25.13L194.81-25.13L194.81-25.13Q193.31-25.56 192.31-25.56L192.31-25.56L192.31-25.56Q191.31-25.56 189.06-24.91L189.06-24.91L189.06-24.91Q186.81-24.25 185.06-23.44L185.06-23.44L185.06-23.44Q180.75-21.44 180.75-19.25L180.75-19.25L180.75-19.25Q185.75-18.81 188.25-18.81L188.25-18.81L188.25-18.81Q195.19-18.81 197.63-20L197.63-20L197.63-20Q199.13-20.63 199.13-21.56L199.13-21.56L199.13-21.56Q199.13-22.69 197.72-23.69ZM208.38-1.88L208.38-1.88L208.38-1.88Q211.44-4.94 214.56-8.88L214.56-8.88L214.56-8.88Q217.69-12.81 218.38-14.13L218.38-14.13L213.13-19.88L213.13-19.88Q212.13-20.94 211.19-22L211.19-22L211.19-22Q210.25-23.06 209.50-23.88L209.50-23.88L209.50-23.88Q208.75-24.69 208.31-25.25L208.31-25.25L207.88-25.75L211.50-29.63L211.50-29.63Q214.31-26.19 215.66-24.41L215.66-24.41L215.66-24.41Q217-22.63 217.81-21.56L217.81-21.56L217.81-21.56Q219.19-19.81 221.81-17.25L221.81-17.25L221.81-17.25Q222.69-18.50 224.94-21.75L224.94-21.75L224.94-21.75Q228.69-27.31 230.94-30L230.94-30L230.94-30Q232.38-30 233.25-29L233.25-29L233.25-29Q234.13-28 234.13-27.13L234.13-27.13L234.13-27.13Q232.50-23.63 229.44-19.75L229.44-19.75L229.44-19.75Q228.31-18.38 227.38-17.09L227.38-17.09L227.38-17.09Q226.44-15.81 225.88-14.31L225.88-14.31L225.88-14.31Q229.69-11.63 235-5.19L235-5.19L235-5.19Q236.19-3.75 236.69-3L236.69-3L236.69-3Q236.69-2.56 236-1.69L236-1.69L236-1.69Q234.94-0.19 234.13 0.19L234.13 0.19L234.13 0.19Q232.94-0.38 231.66-1.84L231.66-1.84L231.66-1.84Q230.38-3.31 228.94-5.06L228.94-5.06L228.94-5.06Q227.50-6.81 225.97-8.56L225.97-8.56L225.97-8.56Q224.44-10.31 222.75-11.44L222.75-11.44L222.75-11.44Q221.31-9.81 218.75-6.75L218.75-6.75L218.75-6.75Q214.06-1.13 212.50 0L212.50 0L212.50 0Q211.31 0.25 209.13-1.13L209.13-1.13L209.13-1.13Q208.56-1.44 208.38-1.88ZM248-6L248-6L248.13-16L248.13-16Q248.13-18.38 247.69-20.06L247.69-20.06L238-20.06L237.88-24.38L247.25-24.38L247.25-40.50L247.25-40.50Q247.44-41.06 248-41.63L248-41.63L248-41.63Q248.88-42.50 249.47-42.50L249.47-42.50L249.47-42.50Q250.06-42.50 250.50-42.38L250.50-42.38L250.50-42.38Q250.94-42.25 251.44-41.50L251.44-41.50L251.44-41.50Q252.44-37.38 252.44-29.06L252.44-29.06L252.44-29.06Q252.44-27 252.63-25L252.63-25L252.63-25Q254.63-25.25 256.63-25.25L256.63-25.25L256.63-25.25Q256.63-25.25 259.88-25.25L259.88-25.25L259.88-25.25Q261.06-25.25 262.06-25.38L262.06-25.38L261.88-20.88L252.75-21.13L253.06 0.44L253.06 0.44Q251.94 0.94 251.13 0.94L251.13 0.94L251.13 0.94Q248 0.94 248-6Z" fill="url(#editing-outline-gradient)"></path></g></g><style>text {
  font-size: 64px;
  font-family: Arial Black;
  dominant-baseline: central;
  text-anchor: middle;
}</style></svg>