<svg width="357.36875px" height="126.8px" xmlns="http://www.w3.org/2000/svg" viewBox="71.31562500000001 11.600000000000001 357.36875 126.8" style="background: none;" preserveAspectRatio="xMidYMid"><defs><linearGradient id="editing-outline-gradient" x1="-0.41354545764260087" x2="1.4135454576426008" y1="0.09326335692419985" y2="0.9067366430758002"><stop offset="0" stop-color="#008080"></stop><stop offset="1" stop-color="#0f878e"></stop></linearGradient><filter id="editing-outline" x="-100%" y="-100%" width="300%" height="300%"><feMorphology in="SourceGraphic" operator="dilate" radius="1" result="outline"></feMorphology><feComposite operator="out" in="outline" in2="SourceAlpha"></feComposite></filter></defs><g filter="url(#editing-outline)"><g transform="translate(127.18498659133911, 98.48999977111816)"><path d="M1.09-1.73L15.74-43.14L15.74-43.14Q16.32-44.86 18.21-44.86L18.21-44.86L18.21-44.86Q20.10-44.86 20.74-43.07L20.74-43.07L35.46-1.73L35.46-1.73Q35.52-1.54 35.52-1.28L35.52-1.28L35.52-1.28Q35.52 0 34.24 0L34.24 0L33.47 0L33.47 0Q32.64 0 32.26-0.83L32.26-0.83L18.30-40.58L4.29-0.83L4.29-0.83Q3.90 0 3.07 0L3.07 0L2.30 0L2.30 0Q1.02 0 1.02-1.28L1.02-1.28L1.02-1.28Q1.02-1.54 1.09-1.73L1.09-1.73ZM12.74-19.71L12.74-19.71L23.81-19.71L23.81-19.71Q24.32-19.71 24.70-19.36L24.70-19.36L24.70-19.36Q25.09-19.01 25.09-18.43L25.09-18.43L25.09-17.86L25.09-17.86Q25.09-17.28 24.70-16.93L24.70-16.93L24.70-16.93Q24.32-16.58 23.81-16.58L23.81-16.58L12.74-16.58L12.74-16.58Q11.52-16.58 11.52-17.86L11.52-17.86L11.52-18.43L11.52-18.43Q11.52-19.71 12.74-19.71ZM62.46-46.85L62.46-46.85L63.23-46.85L63.23-46.85Q64.38-46.85 64.38-45.63L64.38-45.63L64.38-10.43L64.38-10.43Q64.38-5.44 61.34-2.66L61.34-2.66L61.34-2.66Q58.30 0.13 53.38 0.13L53.38 0.13L53.38 0.13Q48.45 0.13 45.38-2.62L45.38-2.62L45.38-2.62Q42.30-5.38 42.30-10.43L42.30-10.43L42.30-21.57L42.30-21.57Q42.30-26.50 45.38-29.25L45.38-29.25L45.38-29.25Q48.45-32 53.38-32L53.38-32L53.38-32Q55.42-32 57.76-31.23L57.76-31.23L57.76-31.23Q60.10-30.46 61.31-29.50L61.31-29.50L61.31-45.63L61.31-45.63Q61.31-46.85 62.46-46.85ZM61.31-10.50L61.31-25.98L61.31-25.98Q57.60-28.93 53.76-28.93L53.76-28.93L53.76-28.93Q49.92-28.93 47.65-27.01L47.65-27.01L47.65-27.01Q45.38-25.09 45.38-21.44L45.38-21.44L45.38-10.50L45.38-10.50Q45.38-6.78 47.65-4.86L47.65-4.86L47.65-4.86Q49.92-2.94 53.38-2.94L53.38-2.94L53.38-2.94Q56.83-2.94 59.07-4.90L59.07-4.90L59.07-4.90Q61.31-6.85 61.31-10.50L61.31-10.50ZM95.10-46.85L95.10-46.85L95.87-46.85L95.87-46.85Q97.02-46.85 97.02-45.63L97.02-45.63L97.02-10.43L97.02-10.43Q97.02-5.44 93.98-2.66L93.98-2.66L93.98-2.66Q90.94 0.13 86.02 0.13L86.02 0.13L86.02 0.13Q81.09 0.13 78.02-2.62L78.02-2.62L78.02-2.62Q74.94-5.38 74.94-10.43L74.94-10.43L74.94-21.57L74.94-21.57Q74.94-26.50 78.02-29.25L78.02-29.25L78.02-29.25Q81.09-32 86.02-32L86.02-32L86.02-32Q88.06-32 90.40-31.23L90.40-31.23L90.40-31.23Q92.74-30.46 93.95-29.50L93.95-29.50L93.95-45.63L93.95-45.63Q93.95-46.85 95.10-46.85ZM93.95-10.50L93.95-25.98L93.95-25.98Q90.24-28.93 86.40-28.93L86.40-28.93L86.40-28.93Q82.56-28.93 80.29-27.01L80.29-27.01L80.29-27.01Q78.02-25.09 78.02-21.44L78.02-21.44L78.02-10.50L78.02-10.50Q78.02-6.78 80.29-4.86L80.29-4.86L80.29-4.86Q82.56-2.94 86.02-2.94L86.02-2.94L86.02-2.94Q89.47-2.94 91.71-4.90L91.71-4.90L91.71-4.90Q93.95-6.85 93.95-10.50L93.95-10.50ZM150.34-39.94L150.34-39.94L150.98-39.94L150.98-39.94Q152.26-39.94 152.26-38.72L152.26-38.72L152.26-1.28L152.26-1.28Q152.26-0.77 151.90-0.38L151.90-0.38L151.90-0.38Q151.55 0 150.98 0L150.98 0L150.34 0L150.34 0Q149.76 0 149.41-0.38L149.41-0.38L149.41-0.38Q149.06-0.77 149.06-1.28L149.06-1.28L149.06-38.72L149.06-38.72Q149.06-39.94 150.34-39.94ZM136.51-44.80L136.51-44.80L164.93-44.80L164.93-44.80Q165.50-44.80 165.86-44.42L165.86-44.42L165.86-44.42Q166.21-44.03 166.21-43.52L166.21-43.52L166.21-42.82L166.21-42.82Q166.21-41.66 164.93-41.66L164.93-41.66L136.51-41.66L136.51-41.66Q135.23-41.66 135.23-42.82L135.23-42.82L135.23-43.52L135.23-43.52Q135.23-44.03 135.62-44.42L135.62-44.42L135.62-44.42Q136.00-44.80 136.51-44.80ZM171.39-21.57L171.39-21.57Q171.39-26.62 174.46-29.38L174.46-29.38L174.46-29.38Q177.54-32.13 182.46-32.13L182.46-32.13L182.46-32.13Q187.39-32.13 190.40-29.34L190.40-29.34L190.40-29.34Q193.41-26.56 193.41-21.57L193.41-21.57L193.41-17.73L193.41-17.73Q193.41-14.98 190.78-14.98L190.78-14.98L176.96-14.98L176.96-14.98Q176.38-14.98 176.03-15.36L176.03-15.36L176.03-15.36Q175.68-15.74 175.68-16.26L175.68-16.26L175.68-16.77L175.68-16.77Q175.68-17.28 176.03-17.66L176.03-17.66L176.03-17.66Q176.38-18.05 176.96-18.05L176.96-18.05L190.40-18.05L190.40-21.50L190.40-21.50Q190.40-25.15 188.16-27.10L188.16-27.10L188.16-27.10Q185.92-29.06 182.46-29.06L182.46-29.06L182.46-29.06Q179.01-29.06 176.74-27.10L176.74-27.10L176.74-27.10Q174.46-25.15 174.46-21.50L174.46-21.50L174.46-10.50L174.46-10.50Q174.46-6.85 176.74-4.90L176.74-4.90L176.74-4.90Q179.01-2.94 182.43-2.94L182.43-2.94L182.43-2.94Q185.86-2.94 188.13-4.83L188.13-4.83L188.13-4.83Q190.40-6.72 190.40-10.24L190.40-10.24L190.40-10.24Q190.40-10.75 190.75-11.14L190.75-11.14L190.75-11.14Q191.10-11.52 191.62-11.52L191.62-11.52L192.13-11.52L192.13-11.52Q192.70-11.52 193.06-11.14L193.06-11.14L193.06-11.14Q193.41-10.75 193.41-10.24L193.41-10.24L193.41-10.24Q193.34-5.31 190.34-2.59L190.34-2.59L190.34-2.59Q187.33 0.13 182.46 0.13L182.46 0.13L182.46 0.13Q177.60 0.13 174.50-2.66L174.50-2.66L174.50-2.66Q171.39-5.44 171.39-10.43L171.39-10.43L171.39-21.57ZM220.74-32L220.74-32L221.44-32L221.44-32Q222.14-32 222.46-31.33L222.46-31.33L222.46-31.33Q222.78-30.66 222.46-30.02L222.46-30.02L222.46-30.02Q221.06-27.84 218.14-23.36L218.14-23.36L218.14-23.36Q215.23-18.88 213.89-16.70L213.89-16.70L213.89-16.77L213.89-16.77Q213.50-16.19 213.44-16.13L213.44-16.13L213.82-15.49L213.82-15.55L222.91-1.98L222.91-1.98Q223.10-1.66 223.10-1.34L223.10-1.34L223.10-1.34Q223.10 0 221.82 0L221.82 0L221.18 0L221.18 0Q220.61 0 220.10-0.51L220.10-0.51L211.65-13.38L211.65-13.38Q210.24-11.20 207.39-6.94L207.39-6.94L207.39-6.94Q204.54-2.69 203.14-0.51L203.14-0.51L203.14-0.51Q202.62 0 202.05 0L202.05 0L201.41 0L201.41 0Q200.58 0 200.35-0.48L200.35-0.48L200.35-0.48Q200.13-0.96 200.13-1.28L200.13-1.28L200.13-1.28Q200.13-1.60 200.32-1.98L200.32-1.98L209.41-15.62L209.41-15.55L209.79-16.13L209.79-16.13Q209.47-16.58 209.34-16.77L209.34-16.77L200.77-30.02L200.77-30.02Q200.45-30.66 200.77-31.33L200.77-31.33L200.77-31.33Q201.09-32 201.79-32L201.79-32L202.43-32L202.43-32Q203.01-32 203.52-31.49L203.52-31.49L211.65-18.94L219.71-31.49L219.71-31.49Q220.22-32 220.74-32ZM233.79-46.72L233.79-46.72L234.30-46.72L234.30-46.72Q235.52-46.72 235.52-45.50L235.52-45.50L235.33-9.86L235.33-9.86Q235.39-6.59 237.15-4.80L237.15-4.80L237.15-4.80Q238.91-3.01 241.79-3.01L241.79-3.01L243.39-3.01L243.39-3.01Q243.90-3.01 244.26-2.62L244.26-2.62L244.26-2.62Q244.61-2.24 244.61-1.79L244.61-1.79L244.61-1.28L244.61-1.28Q244.61 0 241.73 0L241.73 0L241.73 0Q237.50 0 234.94-2.59L234.94-2.59L234.94-2.59Q232.38-5.18 232.32-9.79L232.32-9.79L232.51-45.50L232.51-45.50Q232.64-46.72 233.79-46.72ZM228.86-32L228.86-32L230.40-32L230.40-32Q230.98-32 231.33-31.62L231.33-31.62L231.33-31.62Q231.68-31.23 231.68-30.72L231.68-30.72L231.68-30.34L231.68-30.34Q231.68-29.82 231.33-29.44L231.33-29.44L231.33-29.44Q230.98-29.06 230.40-29.06L230.40-29.06L228.86-29.06L228.86-29.06Q228.29-29.06 227.94-29.44L227.94-29.44L227.94-29.44Q227.58-29.82 227.58-30.34L227.58-30.34L227.58-30.72L227.58-30.72Q227.58-31.23 227.94-31.62L227.94-31.62L227.94-31.62Q228.29-32 228.86-32ZM237.44-32L237.44-32L242.18-32L242.18-32Q242.69-32 243.04-31.62L243.04-31.62L243.04-31.62Q243.39-31.23 243.39-30.72L243.39-30.72L243.39-30.34L243.39-30.34Q243.39-29.82 243.04-29.44L243.04-29.44L243.04-29.44Q242.69-29.06 242.18-29.06L242.18-29.06L237.44-29.06L237.44-29.06Q236.93-29.06 236.54-29.44L236.54-29.44L236.54-29.44Q236.16-29.82 236.16-30.34L236.16-30.34L236.16-30.72L236.16-30.72Q236.16-31.23 236.54-31.62L236.54-31.62L236.54-31.62Q236.93-32 237.44-32Z" fill="url(#editing-outline-gradient)"></path></g></g><style>text {
  font-size: 64px;
  font-family: Arial Black;
  dominant-baseline: central;
  text-anchor: middle;
}</style></svg>