<svg width="458.97499999999997px" height="125.6px" xmlns="http://www.w3.org/2000/svg" viewBox="20.512500000000017 12.200000000000003 458.97499999999997 125.6" style="background: none;" preserveAspectRatio="xMidYMid"><defs><linearGradient id="editing-outline-gradient" x1="-0.41354545764260087" x2="1.4135454576426008" y1="0.09326335692419985" y2="0.9067366430758002"><stop offset="0" stop-color="#008080"></stop><stop offset="1" stop-color="#0f878e"></stop></linearGradient><filter id="editing-outline" x="-100%" y="-100%" width="300%" height="300%"><feMorphology in="SourceGraphic" operator="dilate" radius="1" result="outline"></feMorphology><feComposite operator="out" in="outline" in2="SourceAlpha"></feComposite></filter></defs><g filter="url(#editing-outline)"><g transform="translate(87.8299789428711, 99.84499931335449)"><path d="M6.56 1.25L6.25 1.25L6.25-32.19L6.25-32.19Q6.25-38.94 10.47-43.28L10.47-43.28L10.47-43.28Q14.91-47.81 22.03-47.81L22.03-47.81L22.03-47.81Q29.03-47.81 33.59-43.28L33.59-43.28L33.59-43.28Q37.81-39.09 37.81-32.19L37.81-32.19L37.81-1.56L31.88 1.25L31.56 1.25L31.56-21.88L12.50-21.88L12.50-1.56L6.56 1.25ZM12.50-34.38L12.50-25.31L31.56-25.31L31.56-34.38L31.56-34.38Q31.56-38.56 29.31-41.16L29.31-41.16L29.31-41.16Q26.50-44.38 22.03-44.38L22.03-44.38L22.03-44.38Q17.53-44.38 14.75-41.16L14.75-41.16L14.75-41.16Q12.50-38.53 12.50-34.38L12.50-34.38ZM55-24.63L55-9.75L55-9.75Q55-6.16 56.95-4.48L56.95-4.48L56.95-4.48Q58.91-2.81 61.72-2.81L61.72-2.81L61.72-2.81Q64.53-2.81 66.48-4.48L66.48-4.48L66.48-4.48Q68.44-6.16 68.44-9.75L68.44-9.75L68.44-24.63L68.44-24.63Q68.44-28.22 66.48-29.89L66.48-29.89L66.48-29.89Q64.53-31.56 61.72-31.56L61.72-31.56L61.72-31.56Q58.91-31.56 56.95-29.89L56.95-29.89L56.95-29.89Q55-28.22 55-24.63L55-24.63ZM48.75-11.88L48.75-11.88L48.75-22.50L48.75-22.50Q48.75-27.66 52.63-31.47L52.63-31.47L52.63-31.47Q56.25-35 61.72-35L61.72-35L61.72-35Q65.84-35 68.44-32.34L68.44-32.34L68.44-45.63L74.38-48.44L74.69-48.44L74.69-11.88L74.69-11.88Q74.69-6.72 70.81-2.91L70.81-2.91L70.81-2.91Q67.19 0.63 61.72 0.63L61.72 0.63L61.72 0.63Q56.31 0.63 52.63-2.91L52.63-2.91L52.63-2.91Q48.75-6.66 48.75-11.88ZM91.88-24.63L91.88-9.75L91.88-9.75Q91.88-6.16 93.83-4.48L93.83-4.48L93.83-4.48Q95.78-2.81 98.59-2.81L98.59-2.81L98.59-2.81Q101.41-2.81 103.36-4.48L103.36-4.48L103.36-4.48Q105.31-6.16 105.31-9.75L105.31-9.75L105.31-24.63L105.31-24.63Q105.31-28.22 103.36-29.89L103.36-29.89L103.36-29.89Q101.41-31.56 98.59-31.56L98.59-31.56L98.59-31.56Q95.78-31.56 93.83-29.89L93.83-29.89L93.83-29.89Q91.88-28.22 91.88-24.63L91.88-24.63ZM85.63-11.88L85.63-11.88L85.63-22.50L85.63-22.50Q85.63-27.66 89.50-31.47L89.50-31.47L89.50-31.47Q93.13-35 98.59-35L98.59-35L98.59-35Q102.72-35 105.31-32.34L105.31-32.34L105.31-45.63L111.25-48.44L111.56-48.44L111.56-11.88L111.56-11.88Q111.56-6.72 107.69-2.91L107.69-2.91L107.69-2.91Q104.06 0.63 98.59 0.63L98.59 0.63L98.59 0.63Q93.19 0.63 89.50-2.91L89.50-2.91L89.50-2.91Q85.63-6.66 85.63-11.88ZM156.66 1.25L156.34 1.25L156.34-43.75L142.97-43.75L142.97-44.06L144.44-47.19L175.97-47.19L175.97-46.88L174.50-43.75L162.59-43.75L162.59-1.56L156.66 1.25ZM200.81-13.84L201.13-13.84L201.13-11.88L201.13-11.88Q201.13-6.72 197.25-2.91L197.25-2.91L197.25-2.91Q193.63 0.63 188.16 0.63L188.16 0.63L188.16 0.63Q182.75 0.63 179.06-2.91L179.06-2.91L179.06-2.91Q175.19-6.66 175.19-11.88L175.19-11.88L175.19-22.50L175.19-22.50Q175.19-27.69 179.06-31.47L179.06-31.47L179.06-31.47Q182.69-35 188.16-35L188.16-35L188.16-35Q193.50-35 197.25-31.47L197.25-31.47L197.25-31.47Q201.13-27.81 201.13-23.41L201.13-23.41L181.63-7.66L181.63-7.66Q182.06-5.63 183.38-4.50L183.38-4.50L183.38-4.50Q185.34-2.81 188.16-2.81L188.16-2.81L188.16-2.81Q190.97-2.81 192.92-4.50L192.92-4.50L192.92-4.50Q194.88-6.19 194.88-11.03L194.88-11.03L200.81-13.84ZM181.44-24.63L181.44-12.47L194.88-23.38L194.88-24.63L194.88-24.63Q194.88-28.19 192.94-29.88L192.94-29.88L192.94-29.88Q190.97-31.56 188.16-31.56L188.16-31.56L188.16-31.56Q185.38-31.56 183.38-29.88L183.38-29.88L183.38-29.88Q181.44-28.25 181.44-24.63L181.44-24.63ZM210.97 1.25L210.66 1.25L207.38-0.31L217.44-16.09L207.38-33.03L212.84-35.63L213.16-35.63L221.22-22.03L229.88-35.63L230.19-35.63L233.47-34.06L223.41-18.28L233.47-1.31L228.03 1.25L227.72 1.25L219.66-12.38L210.97 1.25ZM245.09 1.25L244.78 1.25L244.78-30.94L236.75-30.94L236.75-31.25L238.22-34.38L244.78-34.38L244.78-45.63L250.72-48.44L251.03-48.44L251.03-34.38L259.06-34.38L259.06-34.06L257.59-30.94L251.03-30.94L251.03-1.56L245.09 1.25ZM306.34-37.88L306.66-37.88L306.66-26.44L318.09-26.44L318.09-26.13L315.56-20.75L306.66-20.75L306.66-11.84L301.28-9.31L300.97-9.31L300.97-20.75L289.53-20.75L289.53-21.06L292.06-26.44L300.97-26.44L300.97-35.34L306.34-37.88Z" fill="url(#editing-outline-gradient)"></path></g></g><style>text {
  font-size: 64px;
  font-family: Arial Black;
  dominant-baseline: central;
  text-anchor: middle;
}</style></svg>